<svg xmlns="http://www.w3.org/2000/svg" width="1024" height="1024" viewBox="0 0 1024 1024">
  <defs>
    <linearGradient id="bgB" x1="0" y1="0" x2="1" y2="1">
      <stop offset="0" stop-color="#0a0a0b"/>
      <stop offset="0.45" stop-color="#1a1b1d"/>
      <stop offset="1" stop-color="#303235"/>
    </linearGradient>
    <linearGradient id="rimB" x1="0" y1="0" x2="1" y2="1">
      <stop offset="0" stop-color="#eaeaea" stop-opacity="0.5"/>
      <stop offset="0.58" stop-color="#8f9398" stop-opacity="0.18"/>
      <stop offset="1" stop-color="#dfff00" stop-opacity="0.62"/>
    </linearGradient>
    <linearGradient id="panelB" x1="0.15" y1="0" x2="0.85" y2="1">
      <stop offset="0" stop-color="#2a2d2f"/>
      <stop offset="0.5" stop-color="#121314"/>
      <stop offset="1" stop-color="#222527"/>
    </linearGradient>
    <radialGradient id="wash" cx="0.5" cy="0.2" r="0.95">
      <stop offset="0" stop-color="#dfff00" stop-opacity="0.2"/>
      <stop offset="1" stop-color="#dfff00" stop-opacity="0"/>
    </radialGradient>
  </defs>

  <rect x="24" y="24" width="976" height="976" rx="224" fill="url(#bgB)"/>
  <rect x="40" y="40" width="944" height="944" rx="208" fill="none" stroke="url(#rimB)" stroke-width="24"/>

  <rect x="170" y="170" width="684" height="684" rx="160" fill="url(#panelB)"/>
  <rect x="190" y="190" width="644" height="644" rx="144" fill="url(#wash)"/>

  <g>
    <rect x="256" y="298" width="512" height="78" rx="28" fill="#f7f7f7" fill-opacity="0.9"/>
    <rect x="256" y="438" width="512" height="78" rx="28" fill="#b8bcc2" fill-opacity="0.92"/>
    <rect x="256" y="578" width="512" height="78" rx="28" fill="#dfff00" fill-opacity="0.96"/>

    <rect x="294" y="316" width="126" height="42" rx="14" fill="#111315" fill-opacity="0.82"/>
    <rect x="470" y="316" width="102" height="42" rx="14" fill="#111315" fill-opacity="0.82"/>
    <rect x="614" y="316" width="114" height="42" rx="14" fill="#111315" fill-opacity="0.82"/>

    <rect x="312" y="456" width="200" height="42" rx="14" fill="#131517" fill-opacity="0.82"/>
    <rect x="552" y="456" width="150" height="42" rx="14" fill="#131517" fill-opacity="0.82"/>

    <rect x="308" y="596" width="124" height="42" rx="14" fill="#151710" fill-opacity="0.78"/>
    <rect x="470" y="596" width="230" height="42" rx="14" fill="#151710" fill-opacity="0.78"/>
  </g>
</svg>
